<svg version="1.1" viewBox="0.0 0.0 466.54330708661416 183.73228346456693" fill="none" stroke="none" stroke-linecap="square" stroke-miterlimit="10" xmlns:xlink="http://www.w3.org/1999/xlink" xmlns="http://www.w3.org/2000/svg"><clipPath id="p.0"><path d="m0 0l466.5433 0l0 183.73228l-466.5433 0l0 -183.73228z" clip-rule="nonzero"/></clipPath><g clip-path="url(#p.0)"><path fill="#000000" fill-opacity="0.0" d="m0 0l466.5433 0l0 183.73228l-466.5433 0z" fill-rule="evenodd"/><path fill="#a64d79" d="m32.7769 91.86614l0 0c0 -35.815884 28.971058 -64.850395 64.708664 -64.850395l0 0c17.161804 0 33.620697 6.83243 45.755936 18.994238c12.135223 12.161808 18.952728 28.656761 18.952728 45.856155l0 0c0 35.81588 -28.971054 64.850395 -64.708664 64.850395l0 0c-35.737606 0 -64.708664 -29.034515 -64.708664 -64.850395z" fill-rule="evenodd"/><path fill="#ffffff" d="m97.43869 88.94614l-14.21875 38.0l-9.078125 0l18.84375 -49.859375l-7.5625 -20.296875l9.09375 0l26.21875 70.15625l-9.078125 0l-14.21875 -38.0z" fill-rule="nonzero"/><path fill="#000000" fill-opacity="0.0" d="m171.97113 42.889763l261.7953 0l0 97.95275l-261.7953 0z" fill-rule="evenodd"/><path fill="#674ea7" d="m187.36176 69.57601l8.84375 0l0 40.109375l24.890625 0l0 7.484375l-33.734375 0l0 -47.59375zm54.134537 10.875q8.015625 0 12.265625 3.84375q4.2499847 3.84375 4.2499847 11.59375l0 21.28125l-8.01561 0l0 -4.421875q-1.5625 2.375 -4.453125 3.640625q-2.890625 1.25 -6.96875 1.25q-4.09375 0 -7.15625 -1.390625q-3.046875 -1.390625 -4.71875 -3.875q-1.671875 -2.484375 -1.671875 -5.609375q0 -4.890625 3.640625 -7.84375q3.640625 -2.96875 11.46875 -2.96875l9.375 0l0 -0.546875q0 -3.796875 -2.28125 -5.828125q-2.265625 -2.046875 -6.765625 -2.046875q-3.046875 0 -6.015625 0.953125q-2.953125 0.9375 -5.0 2.640625l-3.328125 -6.1875q2.859375 -2.171875 6.859375 -3.328125q4.015625 -1.15625 8.515625 -1.15625zm-1.15625 31.0q3.1875 0 5.671875 -1.453125q2.484375 -1.46875 3.5 -4.1875l0 -4.21875l-8.765625 0q-7.34375 0 -7.34375 4.828125q0 2.3125 1.828125 3.671875q1.84375 1.359375 5.109375 1.359375zm74.38542 -31.0q6.875 0 10.875 3.984375q4.015625 3.96875 4.015625 11.921875l0 20.8125l-8.5 0l0 -19.71875q0 -4.765625 -2.109375 -7.171875q-2.109375 -2.421875 -6.046875 -2.421875q-4.28125 0 -6.875 2.828125q-2.578125 2.828125 -2.578125 8.0625l0 18.421875l-8.5 0l0 -19.71875q0 -4.765625 -2.109375 -7.171875q-2.109375 -2.421875 -6.046875 -2.421875q-4.359375 0 -6.90625 2.796875q-2.546875 2.78125 -2.546875 8.09375l0 18.421875l-8.5 0l0 -36.3125l8.09375 0l0 4.625q2.03125 -2.453125 5.09375 -3.734375q3.0625 -1.296875 6.796875 -1.296875q4.078125 0 7.234375 1.53125q3.171875 1.53125 5.015625 4.515625q2.234375 -2.859375 5.765625 -4.453125q3.546875 -1.59375 7.828125 -1.59375zm45.90094 0q5.3125 0 9.484375 2.3125q4.1875 2.3125 6.5625 6.53125q2.375 4.21875 2.375 9.71875q0 5.515625 -2.375 9.765625q-2.375 4.25 -6.5625 6.5625q-4.171875 2.296875 -9.484375 2.296875q-3.734375 0 -6.828125 -1.28125q-3.09375 -1.296875 -5.203125 -3.875l0 4.6875l-8.09375 0l0 -50.453125l8.5 0l0 18.5625q2.171875 -2.375 5.125 -3.59375q2.96875 -1.234375 6.5 -1.234375zm-0.953125 29.921875q4.6875 0 7.71875 -3.125q3.03125 -3.140625 3.03125 -8.234375q0 -5.09375 -3.03125 -8.21875q-3.03125 -3.140625 -7.71875 -3.140625q-3.0625 0 -5.515625 1.40625q-2.4375 1.390625 -3.875 3.96875q-1.421875 2.578125 -1.421875 5.984375q0 3.40625 1.421875 5.984375q1.4375 2.578125 3.875 3.984375q2.453125 1.390625 5.515625 1.390625z" fill-rule="nonzero"/></g></svg>